REM DIRINDEX 1\2,1\3,1\4,1\5
REM DIRNAME folder01,folder02,folder03,folder04,folder05
TITLE ""
FILE "Chapter_10.mp3" MP3
  TRACK 01 AUDIO
    TITLE "0:"
    INDEX 01 00:00:00
  TRACK 02 AUDIO
    TITLE "5:cjc087_2908"
    INDEX 01 00:00:09
  TRACK 03 AUDIO
    TITLE "0:"
    INDEX 01 00:01:69
  TRACK 04 AUDIO
    TITLE "5:cjc087_2909"
    INDEX 01 00:03:35
  TRACK 05 AUDIO
    TITLE "0:"
    INDEX 01 00:05:50
  TRACK 06 AUDIO
    TITLE "4:cjc087_2910"
    INDEX 01 00:06:45
  TRACK 07 AUDIO
    TITLE "3:cjc087_2911"
    INDEX 01 00:08:30
  TRACK 08 AUDIO
    TITLE "0:"
    INDEX 01 00:10:10
  TRACK 09 AUDIO
    TITLE "4:cjc087_2912"
    INDEX 01 00:11:07
  TRACK 10 AUDIO
    TITLE "3:cjc087_2913"
    INDEX 01 00:12:46
  TRACK 11 AUDIO
    TITLE "0:"
    INDEX 01 00:14:13
  TRACK 12 AUDIO
    TITLE "4:cjc087_2914"
    INDEX 01 00:15:15
  TRACK 13 AUDIO
    TITLE "3:cjc087_2915"
    INDEX 01 00:17:06
  TRACK 14 AUDIO
    TITLE "0:"
    INDEX 01 00:19:22
  TRACK 15 AUDIO
    TITLE "4:cjc087_2916"
    INDEX 01 00:20:26
  TRACK 16 AUDIO
    TITLE "3:cjc087_2917"
    INDEX 01 00:23:36
  TRACK 17 AUDIO
    TITLE "0:"
    INDEX 01 00:25:66
  TRACK 18 AUDIO
    TITLE "4:cjc087_2918"
    INDEX 01 00:26:67
  TRACK 19 AUDIO
    TITLE "3:cjc087_2919"
    INDEX 01 00:29:54
  TRACK 20 AUDIO
    TITLE "0:"
    INDEX 01 00:32:52
  TRACK 21 AUDIO
    TITLE "4:cjc087_2920"
    INDEX 01 00:33:56
  TRACK 22 AUDIO
    TITLE "3:cjc087_2921"
    INDEX 01 00:36:44
  TRACK 23 AUDIO
    TITLE "0:"
    INDEX 01 00:39:37
  TRACK 24 AUDIO
    TITLE "4:cjc087_2922"
    INDEX 01 00:40:38
  TRACK 25 AUDIO
    TITLE "3:cjc087_2923"
    INDEX 01 00:42:12
  TRACK 26 AUDIO
    TITLE "0:"
    INDEX 01 00:44:20
  TRACK 27 AUDIO
    TITLE "5:cjc087_2924"
    INDEX 01 00:45:59
  TRACK 28 AUDIO
    TITLE "0:"
    INDEX 01 00:47:38
  TRACK 29 AUDIO
    TITLE "3:cjc087_2925"
    INDEX 01 00:48:42
  TRACK 30 AUDIO
    TITLE "4:cjc087_2926"
    INDEX 01 00:51:15
  TRACK 31 AUDIO
    TITLE "0:"
    INDEX 01 00:53:70
  TRACK 32 AUDIO
    TITLE "3:cjc087_2927"
    INDEX 01 00:54:74
  TRACK 33 AUDIO
    TITLE "4:cjc087_2928"
    INDEX 01 00:57:58
  TRACK 34 AUDIO
    TITLE "0:"
    INDEX 01 01:00:21
  TRACK 35 AUDIO
    TITLE "3:cjc087_2929"
    INDEX 01 01:01:25
  TRACK 36 AUDIO
    TITLE "4:cjc087_2930"
    INDEX 01 01:02:59
  TRACK 37 AUDIO
    TITLE "0:"
    INDEX 01 01:04:35
  TRACK 38 AUDIO
    TITLE "3:cjc087_2931"
    INDEX 01 01:05:34
  TRACK 39 AUDIO
    TITLE "4:cjc087_2932"
    INDEX 01 01:08:42
  TRACK 40 AUDIO
    TITLE "0:"
    INDEX 01 01:11:15
  TRACK 41 AUDIO
    TITLE "3:cjc087_2933"
    INDEX 01 01:12:15
  TRACK 42 AUDIO
    TITLE "4:cjc087_2934"
    INDEX 01 01:13:71
  TRACK 43 AUDIO
    TITLE "0:"
    INDEX 01 01:15:48
  TRACK 44 AUDIO
    TITLE "3:cjc087_2935"
    INDEX 01 01:16:50
  TRACK 45 AUDIO
    TITLE "4:cjc087_2936"
    INDEX 01 01:18:43
  TRACK 46 AUDIO
    TITLE "0:"
    INDEX 01 01:20:14
  TRACK 47 AUDIO
    TITLE "5:cjc087_2937"
    INDEX 01 01:21:51
  TRACK 48 AUDIO
    TITLE "0:"
    INDEX 01 01:23:52
  TRACK 49 AUDIO
    TITLE "4:cjc087_2938"
    INDEX 01 01:24:45
  TRACK 50 AUDIO
    TITLE "3:cjc087_2939"
    INDEX 01 01:26:74
  TRACK 51 AUDIO
    TITLE "0:"
    INDEX 01 01:29:21
  TRACK 52 AUDIO
    TITLE "4:cjc087_2940"
    INDEX 01 01:30:24
  TRACK 53 AUDIO
    TITLE "3:cjc087_2941"
    INDEX 01 01:31:65
  TRACK 54 AUDIO
    TITLE "0:"
    INDEX 01 01:33:64
  TRACK 55 AUDIO
    TITLE "4:cjc087_2942"
    INDEX 01 01:34:63
  TRACK 56 AUDIO
    TITLE "3:cjc087_2943"
    INDEX 01 01:37:13
  TRACK 57 AUDIO
    TITLE "0:"
    INDEX 01 01:39:04
  TRACK 58 AUDIO
    TITLE "4:cjc087_2944"
    INDEX 01 01:40:07
  TRACK 59 AUDIO
    TITLE "3:cjc087_2945"
    INDEX 01 01:42:26
  TRACK 60 AUDIO
    TITLE "0:"
    INDEX 01 01:44:01
  TRACK 61 AUDIO
    TITLE "4:cjc087_2946"
    INDEX 01 01:45:02
  TRACK 62 AUDIO
    TITLE "3:cjc087_2947"
    INDEX 01 01:47:33
  TRACK 63 AUDIO
    TITLE "0:"
    INDEX 01 01:49:51
  TRACK 64 AUDIO
    TITLE "4:cjc087_2948"
    INDEX 01 01:50:54
  TRACK 65 AUDIO
    TITLE "3:cjc087_2949"
    INDEX 01 01:53:37
  TRACK 66 AUDIO
    TITLE "0:"
    INDEX 01 01:55:40
  TRACK 67 AUDIO
    TITLE "4:cjc087_2950"
    INDEX 01 01:56:45
  TRACK 68 AUDIO
    TITLE "3:cjc087_2951"
    INDEX 01 01:58:62
  TRACK 69 AUDIO
    TITLE "0:"
    INDEX 01 02:01:19
  TRACK 70 AUDIO
    TITLE "5:cjc087_2952"
    INDEX 01 02:02:60
  TRACK 71 AUDIO
    TITLE "0:"
    INDEX 01 02:04:43
  TRACK 72 AUDIO
    TITLE "3:cjc087_2953"
    INDEX 01 02:05:48
  TRACK 73 AUDIO
    TITLE "4:cjc087_2954"
    INDEX 01 02:07:73
  TRACK 74 AUDIO
    TITLE "0:"
    INDEX 01 02:09:40
  TRACK 75 AUDIO
    TITLE "3:cjc087_2955"
    INDEX 01 02:10:43
  TRACK 76 AUDIO
    TITLE "4:cjc087_2956"
    INDEX 01 02:12:38
  TRACK 77 AUDIO
    TITLE "0:"
    INDEX 01 02:14:31
  TRACK 78 AUDIO
    TITLE "3:cjc087_2957"
    INDEX 01 02:15:33
  TRACK 79 AUDIO
    TITLE "4:cjc087_2958"
    INDEX 01 02:17:44
  TRACK 80 AUDIO
    TITLE "0:"
    INDEX 01 02:19:40
  TRACK 81 AUDIO
    TITLE "3:cjc087_2959"
    INDEX 01 02:20:44
  TRACK 82 AUDIO
    TITLE "4:cjc087_2960"
    INDEX 01 02:22:15
  TRACK 83 AUDIO
    TITLE "0:"
    INDEX 01 02:23:64
  TRACK 84 AUDIO
    TITLE "3:cjc087_2961"
    INDEX 01 02:24:65
  TRACK 85 AUDIO
    TITLE "4:cjc087_2962"
    INDEX 01 02:28:45
  TRACK 86 AUDIO
    TITLE "0:"
    INDEX 01 02:30:19
  TRACK 87 AUDIO
    TITLE "3:cjc087_2963"
    INDEX 01 02:31:22
  TRACK 88 AUDIO
    TITLE "4:cjc087_2964"
    INDEX 01 02:33:43
  TRACK 89 AUDIO
    TITLE "0:"
    INDEX 01 02:35:73
  TRACK 90 AUDIO
    TITLE "3:cjc087_2965"
    INDEX 01 02:37:01
  TRACK 91 AUDIO
    TITLE "4:cjc087_2966"
    INDEX 01 02:39:39
  TRACK 92 AUDIO
    TITLE "0:"
    INDEX 01 02:42:22
  TRACK 93 AUDIO
    TITLE "2:cjc087_2967"
    INDEX 01 02:43:59
  TRACK 94 AUDIO
    TITLE "0:"
    INDEX 01 02:57:25
  TRACK 95 AUDIO
    TITLE "5:cjc087_2968"
    INDEX 01 02:58:70
  TRACK 96 AUDIO
    TITLE "0:"
    INDEX 01 03:00:51
  TRACK 97 AUDIO
    TITLE "4:cjc087_2969"
    INDEX 01 03:01:55
  TRACK 98 AUDIO
    TITLE "3:cjc087_2970"
    INDEX 01 03:04:27
  TRACK 99 AUDIO
    TITLE "0:"
    INDEX 01 03:07:10
  TRACK 100 AUDIO
    TITLE "4:cjc087_2971"
    INDEX 01 03:08:13
  TRACK 101 AUDIO
    TITLE "3:cjc087_2972"
    INDEX 01 03:10:40
  TRACK 102 AUDIO
    TITLE "0:"
    INDEX 01 03:13:38
  TRACK 103 AUDIO
    TITLE "4:cjc087_2973"
    INDEX 01 03:14:55
  TRACK 104 AUDIO
    TITLE "3:cjc087_2974"
    INDEX 01 03:16:42
  TRACK 105 AUDIO
    TITLE "0:"
    INDEX 01 03:19:02
  TRACK 106 AUDIO
    TITLE "4:cjc087_2975"
    INDEX 01 03:20:03
  TRACK 107 AUDIO
    TITLE "3:cjc087_2976"
    INDEX 01 03:21:71
  TRACK 108 AUDIO
    TITLE "0:"
    INDEX 01 03:24:46
  TRACK 109 AUDIO
    TITLE "4:cjc087_2977"
    INDEX 01 03:25:47
  TRACK 110 AUDIO
    TITLE "3:cjc087_2978"
    INDEX 01 03:27:64
  TRACK 111 AUDIO
    TITLE "0:"
    INDEX 01 03:30:09
  TRACK 112 AUDIO
    TITLE "4:cjc087_2979"
    INDEX 01 03:31:11
  TRACK 113 AUDIO
    TITLE "3:cjc087_2980"
    INDEX 01 03:33:11
  TRACK 114 AUDIO
    TITLE "0:"
    INDEX 01 03:35:63
  TRACK 115 AUDIO
    TITLE "4:cjc087_2981"
    INDEX 01 03:36:71
  TRACK 116 AUDIO
    TITLE "3:cjc087_2982"
    INDEX 01 03:39:51
  TRACK 117 AUDIO
    TITLE "0:"
    INDEX 01 03:42:26
  TRACK 118 AUDIO
    TITLE "5:cjc087_2983"
    INDEX 01 03:43:73
  TRACK 119 AUDIO
    TITLE "0:"
    INDEX 01 03:45:56
  TRACK 120 AUDIO
    TITLE "4:cjc087_2984"
    INDEX 01 03:46:57
  TRACK 121 AUDIO
    TITLE "3:cjc087_2985"
    INDEX 01 03:48:33
  TRACK 122 AUDIO
    TITLE "0:"
    INDEX 01 03:50:53
  TRACK 123 AUDIO
    TITLE "4:cjc087_2986"
    INDEX 01 03:51:54
  TRACK 124 AUDIO
    TITLE "3:cjc087_2987"
    INDEX 01 03:54:12
  TRACK 125 AUDIO
    TITLE "0:"
    INDEX 01 03:56:16
  TRACK 126 AUDIO
    TITLE "4:cjc087_2988"
    INDEX 01 03:57:16
  TRACK 127 AUDIO
    TITLE "3:cjc087_2989"
    INDEX 01 03:58:25
  TRACK 128 AUDIO
    TITLE "0:"
    INDEX 01 04:00:18
  TRACK 129 AUDIO
    TITLE "4:cjc087_2990"
    INDEX 01 04:01:21
  TRACK 130 AUDIO
    TITLE "3:cjc087_2991"
    INDEX 01 04:03:62
  TRACK 131 AUDIO
    TITLE "0:"
    INDEX 01 04:06:34
  TRACK 132 AUDIO
    TITLE "4:cjc087_2992"
    INDEX 01 04:07:40
  TRACK 133 AUDIO
    TITLE "3:cjc087_2993"
    INDEX 01 04:10:05
  TRACK 134 AUDIO
    TITLE "0:"
    INDEX 01 04:12:49
  TRACK 135 AUDIO
    TITLE "4:cjc087_2994"
    INDEX 01 04:13:54
  TRACK 136 AUDIO
    TITLE "3:cjc087_2995"
    INDEX 01 04:15:16
  TRACK 137 AUDIO
    TITLE "0:"
    INDEX 01 04:16:54
  TRACK 138 AUDIO
    TITLE "4:cjc087_2996"
    INDEX 01 04:17:56
  TRACK 139 AUDIO
    TITLE "3:cjc087_2997"
    INDEX 01 04:20:09
  TRACK 140 AUDIO
    TITLE "0:"
    INDEX 01 04:22:71
  TRACK 141 AUDIO
    TITLE "5:cjc087_2998"
    INDEX 01 04:24:34
  TRACK 142 AUDIO
    TITLE "0:"
    INDEX 01 04:26:18
  TRACK 143 AUDIO
    TITLE "4:cjc087_2999"
    INDEX 01 04:27:15
  TRACK 144 AUDIO
    TITLE "3:cjc087_3000"
    INDEX 01 04:29:53
  TRACK 145 AUDIO
    TITLE "0:"
    INDEX 01 04:32:22
  TRACK 146 AUDIO
    TITLE "4:cjc087_3001"
    INDEX 01 04:33:25
  TRACK 147 AUDIO
    TITLE "3:cjc087_3002"
    INDEX 01 04:36:61
  TRACK 148 AUDIO
    TITLE "0:"
    INDEX 01 04:40:59
  TRACK 149 AUDIO
    TITLE "4:cjc087_3003"
    INDEX 01 04:41:60
  TRACK 150 AUDIO
    TITLE "3:cjc087_3004"
    INDEX 01 04:44:41
  TRACK 151 AUDIO
    TITLE "0:"
    INDEX 01 04:47:43
  TRACK 152 AUDIO
    TITLE "4:cjc087_3005"
    INDEX 01 04:48:45
  TRACK 153 AUDIO
    TITLE "3:cjc087_3006"
    INDEX 01 04:50:40
  TRACK 154 AUDIO
    TITLE "0:"
    INDEX 01 04:52:23
  TRACK 155 AUDIO
    TITLE "4:cjc087_3007"
    INDEX 01 04:53:26
  TRACK 156 AUDIO
    TITLE "3:cjc087_3008"
    INDEX 01 04:55:17
  TRACK 157 AUDIO
    TITLE "0:"
    INDEX 01 04:57:38
  TRACK 158 AUDIO
    TITLE "4:cjc087_3009"
    INDEX 01 04:58:37
  TRACK 159 AUDIO
    TITLE "3:cjc087_3010"
    INDEX 01 05:00:28
  TRACK 160 AUDIO
    TITLE "0:"
    INDEX 01 05:02:29
  TRACK 161 AUDIO
    TITLE "4:cjc087_3011"
    INDEX 01 05:03:30
  TRACK 162 AUDIO
    TITLE "3:cjc087_3012"
    INDEX 01 05:05:59
  TRACK 163 AUDIO
    TITLE "0:"
    INDEX 01 05:08:26
  TRACK 164 AUDIO
    TITLE "5:cjc087_3013"
    INDEX 01 05:09:60
  TRACK 165 AUDIO
    TITLE "0:"
    INDEX 01 05:11:46
  TRACK 166 AUDIO
    TITLE "3:cjc087_3014"
    INDEX 01 05:12:47
  TRACK 167 AUDIO
    TITLE "4:cjc087_3015"
    INDEX 01 05:15:32
  TRACK 168 AUDIO
    TITLE "0:"
    INDEX 01 05:17:36
  TRACK 169 AUDIO
    TITLE "3:cjc087_3016"
    INDEX 01 05:18:40
  TRACK 170 AUDIO
    TITLE "4:cjc087_3017"
    INDEX 01 05:21:19
  TRACK 171 AUDIO
    TITLE "0:"
    INDEX 01 05:23:49
  TRACK 172 AUDIO
    TITLE "3:cjc087_3018"
    INDEX 01 05:24:52
  TRACK 173 AUDIO
    TITLE "4:cjc087_3019"
    INDEX 01 05:27:05
  TRACK 174 AUDIO
    TITLE "0:"
    INDEX 01 05:29:26
  TRACK 175 AUDIO
    TITLE "3:cjc087_3020"
    INDEX 01 05:30:29
  TRACK 176 AUDIO
    TITLE "4:cjc087_3021"
    INDEX 01 05:33:06
  TRACK 177 AUDIO
    TITLE "0:"
    INDEX 01 05:36:14
  TRACK 178 AUDIO
    TITLE "3:cjc087_3022"
    INDEX 01 05:37:18
  TRACK 179 AUDIO
    TITLE "4:cjc087_3023"
    INDEX 01 05:39:63
  TRACK 180 AUDIO
    TITLE "0:"
    INDEX 01 05:41:43
  TRACK 181 AUDIO
    TITLE "3:cjc087_3024"
    INDEX 01 05:42:50
  TRACK 182 AUDIO
    TITLE "4:cjc087_3025"
    INDEX 01 05:44:29
  TRACK 183 AUDIO
    TITLE "0:"
    INDEX 01 05:45:62
  TRACK 184 AUDIO
    TITLE "3:cjc087_3026"
    INDEX 01 05:46:64
  TRACK 185 AUDIO
    TITLE "4:cjc087_3027"
    INDEX 01 05:48:55
  TRACK 186 AUDIO
    TITLE "0:"
    INDEX 01 05:50:28
  TRACK 187 AUDIO
    TITLE "5:cjc087_3028"
    INDEX 01 05:51:71
  TRACK 188 AUDIO
    TITLE "0:"
    INDEX 01 05:53:52
  TRACK 189 AUDIO
    TITLE "4:cjc087_3029"
    INDEX 01 05:54:55
  TRACK 190 AUDIO
    TITLE "3:cjc087_3030"
    INDEX 01 05:56:58
  TRACK 191 AUDIO
    TITLE "0:"
    INDEX 01 05:58:71
  TRACK 192 AUDIO
    TITLE "4:cjc087_3031"
    INDEX 01 05:59:72
  TRACK 193 AUDIO
    TITLE "3:cjc087_3032"
    INDEX 01 06:02:72
  TRACK 194 AUDIO
    TITLE "0:"
    INDEX 01 06:06:35
  TRACK 195 AUDIO
    TITLE "4:cjc087_3033"
    INDEX 01 06:07:40
  TRACK 196 AUDIO
    TITLE "3:cjc087_3034"
    INDEX 01 06:09:37
  TRACK 197 AUDIO
    TITLE "0:"
    INDEX 01 06:11:34
  TRACK 198 AUDIO
    TITLE "4:cjc087_3035"
    INDEX 01 06:12:36
  TRACK 199 AUDIO
    TITLE "3:cjc087_3036"
    INDEX 01 06:14:25
  TRACK 200 AUDIO
    TITLE "0:"
    INDEX 01 06:16:39
  TRACK 201 AUDIO
    TITLE "4:cjc087_3037"
    INDEX 01 06:17:41
  TRACK 202 AUDIO
    TITLE "3:cjc087_3038"
    INDEX 01 06:19:67
  TRACK 203 AUDIO
    TITLE "0:"
    INDEX 01 06:22:12
  TRACK 204 AUDIO
    TITLE "4:cjc087_3039"
    INDEX 01 06:23:16
  TRACK 205 AUDIO
    TITLE "3:cjc087_3040"
    INDEX 01 06:24:68
  TRACK 206 AUDIO
    TITLE "0:"
    INDEX 01 06:26:73
  TRACK 207 AUDIO
    TITLE "4:cjc087_3041"
    INDEX 01 06:27:74
  TRACK 208 AUDIO
    TITLE "3:cjc087_3042"
    INDEX 01 06:29:50
  TRACK 209 AUDIO
    TITLE "0:"
    INDEX 01 06:31:52
  TRACK 210 AUDIO
    TITLE "5:cjc087_3043"
    INDEX 01 06:33:18
  TRACK 211 AUDIO
    TITLE "0:"
    INDEX 01 06:35:09
  TRACK 212 AUDIO
    TITLE "3:cjc087_3044"
    INDEX 01 06:36:07
  TRACK 213 AUDIO
    TITLE "4:cjc087_3045"
    INDEX 01 06:38:17
  TRACK 214 AUDIO
    TITLE "0:"
    INDEX 01 06:40:20
  TRACK 215 AUDIO
    TITLE "3:cjc087_3046"
    INDEX 01 06:41:21
  TRACK 216 AUDIO
    TITLE "4:cjc087_3047"
    INDEX 01 06:43:48
  TRACK 217 AUDIO
    TITLE "0:"
    INDEX 01 06:45:43
  TRACK 218 AUDIO
    TITLE "3:cjc087_3048"
    INDEX 01 06:46:44
  TRACK 219 AUDIO
    TITLE "4:cjc087_3049"
    INDEX 01 06:48:47
  TRACK 220 AUDIO
    TITLE "0:"
    INDEX 01 06:50:52
  TRACK 221 AUDIO
    TITLE "3:cjc087_3050"
    INDEX 01 06:51:55
  TRACK 222 AUDIO
    TITLE "4:cjc087_3051"
    INDEX 01 06:56:00
  TRACK 223 AUDIO
    TITLE "0:"
    INDEX 01 07:00:38
  TRACK 224 AUDIO
    TITLE "3:cjc087_3052"
    INDEX 01 07:01:44
  TRACK 225 AUDIO
    TITLE "4:cjc087_3053"
    INDEX 01 07:04:19
  TRACK 226 AUDIO
    TITLE "0:"
    INDEX 01 07:06:53
  TRACK 227 AUDIO
    TITLE "3:cjc087_3054"
    INDEX 01 07:07:58
  TRACK 228 AUDIO
    TITLE "4:cjc087_3055"
    INDEX 01 07:10:72
  TRACK 229 AUDIO
    TITLE "0:"
    INDEX 01 07:12:63
  TRACK 230 AUDIO
    TITLE "3:cjc087_3056"
    INDEX 01 07:13:67
  TRACK 231 AUDIO
    TITLE "4:cjc087_3057"
    INDEX 01 07:15:58
  TRACK 232 AUDIO
    TITLE "0:"
    INDEX 01 07:17:58
  TRACK 233 AUDIO
    TITLE "2:cjc087_3058"
    INDEX 01 07:19:20
  TRACK 234 AUDIO
    TITLE "0:"
    INDEX 01 07:30:42
  TRACK 235 AUDIO
    TITLE "5:cjc087_3059"
    INDEX 01 07:32:15
  TRACK 236 AUDIO
    TITLE "0:"
    INDEX 01 07:34:14
  TRACK 237 AUDIO
    TITLE "4:cjc087_3060"
    INDEX 01 07:35:13
  TRACK 238 AUDIO
    TITLE "3:cjc087_3061"
    INDEX 01 07:36:72
  TRACK 239 AUDIO
    TITLE "0:"
    INDEX 01 07:39:64
  TRACK 240 AUDIO
    TITLE "4:cjc087_3062"
    INDEX 01 07:40:65
  TRACK 241 AUDIO
    TITLE "3:cjc087_3063"
    INDEX 01 07:42:25
  TRACK 242 AUDIO
    TITLE "0:"
    INDEX 01 07:44:12
  TRACK 243 AUDIO
    TITLE "4:cjc087_3064"
    INDEX 01 07:45:14
  TRACK 244 AUDIO
    TITLE "3:cjc087_3065"
    INDEX 01 07:47:48
  TRACK 245 AUDIO
    TITLE "0:"
    INDEX 01 07:50:32
  TRACK 246 AUDIO
    TITLE "4:cjc087_3066"
    INDEX 01 07:51:34
  TRACK 247 AUDIO
    TITLE "3:cjc087_3067"
    INDEX 01 07:55:36
  TRACK 248 AUDIO
    TITLE "0:"
    INDEX 01 07:59:20
  TRACK 249 AUDIO
    TITLE "4:cjc087_3068"
    INDEX 01 08:00:21
  TRACK 250 AUDIO
    TITLE "3:cjc087_3069"
    INDEX 01 08:02:61
  TRACK 251 AUDIO
    TITLE "0:"
    INDEX 01 08:05:28
  TRACK 252 AUDIO
    TITLE "4:cjc087_3070"
    INDEX 01 08:06:31
  TRACK 253 AUDIO
    TITLE "3:cjc087_3071"
    INDEX 01 08:07:70
  TRACK 254 AUDIO
    TITLE "0:"
    INDEX 01 08:10:37
  TRACK 255 AUDIO
    TITLE "4:cjc087_3072"
    INDEX 01 08:11:39
  TRACK 256 AUDIO
    TITLE "3:cjc087_3073"
    INDEX 01 08:13:04
  TRACK 257 AUDIO
    TITLE "0:"
    INDEX 01 08:15:17
  TRACK 258 AUDIO
    TITLE "5:cjc087_3074"
    INDEX 01 08:16:55
  TRACK 259 AUDIO
    TITLE "0:"
    INDEX 01 08:18:48
  TRACK 260 AUDIO
    TITLE "3:cjc087_3075"
    INDEX 01 08:19:48
  TRACK 261 AUDIO
    TITLE "4:cjc087_3076"
    INDEX 01 08:21:53
  TRACK 262 AUDIO
    TITLE "0:"
    INDEX 01 08:23:06
  TRACK 263 AUDIO
    TITLE "3:cjc087_3077"
    INDEX 01 08:24:08
  TRACK 264 AUDIO
    TITLE "4:cjc087_3078"
    INDEX 01 08:26:73
  TRACK 265 AUDIO
    TITLE "0:"
    INDEX 01 08:29:64
  TRACK 266 AUDIO
    TITLE "3:cjc087_3079"
    INDEX 01 08:30:63
  TRACK 267 AUDIO
    TITLE "4:cjc087_3080"
    INDEX 01 08:33:44
  TRACK 268 AUDIO
    TITLE "0:"
    INDEX 01 08:36:13
  TRACK 269 AUDIO
    TITLE "3:cjc087_3081"
    INDEX 01 08:37:16
  TRACK 270 AUDIO
    TITLE "4:cjc087_3082"
    INDEX 01 08:40:21
  TRACK 271 AUDIO
    TITLE "0:"
    INDEX 01 08:42:63
  TRACK 272 AUDIO
    TITLE "3:cjc087_3083"
    INDEX 01 08:43:66
  TRACK 273 AUDIO
    TITLE "4:cjc087_3084"
    INDEX 01 08:46:33
  TRACK 274 AUDIO
    TITLE "0:"
    INDEX 01 08:49:06
  TRACK 275 AUDIO
    TITLE "3:cjc087_3085"
    INDEX 01 08:50:07
  TRACK 276 AUDIO
    TITLE "4:cjc087_3086"
    INDEX 01 08:52:10
  TRACK 277 AUDIO
    TITLE "0:"
    INDEX 01 08:53:62
  TRACK 278 AUDIO
    TITLE "3:cjc087_3087"
    INDEX 01 08:54:62
  TRACK 279 AUDIO
    TITLE "4:cjc087_3088"
    INDEX 01 08:57:50
  TRACK 280 AUDIO
    TITLE "0:"
    INDEX 01 09:00:06
  TRACK 281 AUDIO
    TITLE "5:cjc087_3089"
    INDEX 01 09:01:46
  TRACK 282 AUDIO
    TITLE "0:"
    INDEX 01 09:03:55
  TRACK 283 AUDIO
    TITLE "4:cjc087_3090"
    INDEX 01 09:04:52
  TRACK 284 AUDIO
    TITLE "3:cjc087_3091"
    INDEX 01 09:06:36
  TRACK 285 AUDIO
    TITLE "0:"
    INDEX 01 09:08:38
  TRACK 286 AUDIO
    TITLE "4:cjc087_3092"
    INDEX 01 09:09:40
  TRACK 287 AUDIO
    TITLE "3:cjc087_3093"
    INDEX 01 09:11:11
  TRACK 288 AUDIO
    TITLE "0:"
    INDEX 01 09:13:00
  TRACK 289 AUDIO
    TITLE "4:cjc087_3094"
    INDEX 01 09:14:04
  TRACK 290 AUDIO
    TITLE "3:cjc087_3095"
    INDEX 01 09:16:46
  TRACK 291 AUDIO
    TITLE "0:"
    INDEX 01 09:19:62
  TRACK 292 AUDIO
    TITLE "4:cjc087_3096"
    INDEX 01 09:20:63
  TRACK 293 AUDIO
    TITLE "3:cjc087_3097"
    INDEX 01 09:22:58
  TRACK 294 AUDIO
    TITLE "0:"
    INDEX 01 09:24:43
  TRACK 295 AUDIO
    TITLE "4:cjc087_3098"
    INDEX 01 09:25:41
  TRACK 296 AUDIO
    TITLE "3:cjc087_3099"
    INDEX 01 09:27:42
  TRACK 297 AUDIO
    TITLE "0:"
    INDEX 01 09:29:37
  TRACK 298 AUDIO
    TITLE "4:cjc087_3100"
    INDEX 01 09:30:38
  TRACK 299 AUDIO
    TITLE "3:cjc087_3101"
    INDEX 01 09:32:70
  TRACK 300 AUDIO
    TITLE "0:"
    INDEX 01 09:35:10
  TRACK 301 AUDIO
    TITLE "5:cjc087_3102"
    INDEX 01 09:36:48
  TRACK 302 AUDIO
    TITLE "0:"
    INDEX 01 09:38:47
  TRACK 303 AUDIO
    TITLE "4:cjc087_3103"
    INDEX 01 09:39:51
  TRACK 304 AUDIO
    TITLE "3:cjc087_3104"
    INDEX 01 09:41:32
  TRACK 305 AUDIO
    TITLE "0:"
    INDEX 01 09:42:49
  TRACK 306 AUDIO
    TITLE "4:cjc087_3105"
    INDEX 01 09:43:50
  TRACK 307 AUDIO
    TITLE "3:cjc087_3106"
    INDEX 01 09:45:44
  TRACK 308 AUDIO
    TITLE "0:"
    INDEX 01 09:47:13
  TRACK 309 AUDIO
    TITLE "4:cjc087_3107"
    INDEX 01 09:48:18
  TRACK 310 AUDIO
    TITLE "3:cjc087_3108"
    INDEX 01 09:50:00
  TRACK 311 AUDIO
    TITLE "0:"
    INDEX 01 09:52:20
  TRACK 312 AUDIO
    TITLE "4:cjc087_3109"
    INDEX 01 09:53:23
  TRACK 313 AUDIO
    TITLE "3:cjc087_3110"
    INDEX 01 09:55:15
  TRACK 314 AUDIO
    TITLE "0:"
    INDEX 01 09:57:15
  TRACK 315 AUDIO
    TITLE "4:cjc087_3111"
    INDEX 01 09:58:15
  TRACK 316 AUDIO
    TITLE "3:cjc087_3112"
    INDEX 01 10:00:41
  TRACK 317 AUDIO
    TITLE "0:"
    INDEX 01 10:02:56
  TRACK 318 AUDIO
    TITLE "4:cjc087_3113"
    INDEX 01 10:03:57
  TRACK 319 AUDIO
    TITLE "3:cjc087_3114"
    INDEX 01 10:08:03
  TRACK 320 AUDIO
    TITLE "0:"
    INDEX 01 10:12:29
  TRACK 321 AUDIO
    TITLE "5:cjc087_3115"
    INDEX 01 10:13:67
  TRACK 322 AUDIO
    TITLE "0:"
    INDEX 01 10:15:70
  TRACK 323 AUDIO
    TITLE "4:cjc087_3116"
    INDEX 01 10:16:73
  TRACK 324 AUDIO
    TITLE "3:cjc087_3117"
    INDEX 01 10:18:53
  TRACK 325 AUDIO
    TITLE "0:"
    INDEX 01 10:21:14
  TRACK 326 AUDIO
    TITLE "4:cjc087_3118"
    INDEX 01 10:22:15
  TRACK 327 AUDIO
    TITLE "3:cjc087_3119"
    INDEX 01 10:24:00
  TRACK 328 AUDIO
    TITLE "0:"
    INDEX 01 10:26:11
  TRACK 329 AUDIO
    TITLE "4:cjc087_3120"
    INDEX 01 10:27:13
  TRACK 330 AUDIO
    TITLE "3:cjc087_3121"
    INDEX 01 10:28:57
  TRACK 331 AUDIO
    TITLE "0:"
    INDEX 01 10:30:23
  TRACK 332 AUDIO
    TITLE "4:cjc087_3122"
    INDEX 01 10:31:26
  TRACK 333 AUDIO
    TITLE "3:cjc087_3123"
    INDEX 01 10:33:48
  TRACK 334 AUDIO
    TITLE "0:"
    INDEX 01 10:35:69
  TRACK 335 AUDIO
    TITLE "4:cjc087_3124"
    INDEX 01 10:36:70
  TRACK 336 AUDIO
    TITLE "3:cjc087_3125"
    INDEX 01 10:39:45
  TRACK 337 AUDIO
    TITLE "0:"
    INDEX 01 10:41:30
  TRACK 338 AUDIO
    TITLE "4:cjc087_3126"
    INDEX 01 10:42:34
  TRACK 339 AUDIO
    TITLE "3:cjc087_3127"
    INDEX 01 10:44:40
  TRACK 340 AUDIO
    TITLE "0:"
    INDEX 01 10:47:03
  TRACK 341 AUDIO
    TITLE "4:cjc087_3128"
    INDEX 01 10:48:05
  TRACK 342 AUDIO
    TITLE "3:cjc087_3129"
    INDEX 01 10:50:10
  TRACK 343 AUDIO
    TITLE "0:"
    INDEX 01 10:53:18
  TRACK 344 AUDIO
    TITLE "4:cjc087_3130"
    INDEX 01 10:54:21
  TRACK 345 AUDIO
    TITLE "3:cjc087_3131"
    INDEX 01 10:56:46
  TRACK 346 AUDIO
    TITLE "0:"
    INDEX 01 10:59:09
  TRACK 347 AUDIO
    TITLE "5:cjc087_3132"
    INDEX 01 11:00:51
  TRACK 348 AUDIO
    TITLE "0:"
    INDEX 01 11:02:52
  TRACK 349 AUDIO
    TITLE "4:cjc087_3133"
    INDEX 01 11:03:51
  TRACK 350 AUDIO
    TITLE "3:cjc087_3134"
    INDEX 01 11:06:07
  TRACK 351 AUDIO
    TITLE "0:"
    INDEX 01 11:08:15
  TRACK 352 AUDIO
    TITLE "4:cjc087_3135"
    INDEX 01 11:09:17
  TRACK 353 AUDIO
    TITLE "3:cjc087_3136"
    INDEX 01 11:11:29
  TRACK 354 AUDIO
    TITLE "0:"
    INDEX 01 11:14:00
  TRACK 355 AUDIO
    TITLE "4:cjc087_3137"
    INDEX 01 11:15:02
  TRACK 356 AUDIO
    TITLE "3:cjc087_3138"
    INDEX 01 11:16:58
  TRACK 357 AUDIO
    TITLE "0:"
    INDEX 01 11:19:09
  TRACK 358 AUDIO
    TITLE "4:cjc087_3139"
    INDEX 01 11:20:11
  TRACK 359 AUDIO
    TITLE "3:cjc087_3140"
    INDEX 01 11:22:29
  TRACK 360 AUDIO
    TITLE "0:"
    INDEX 01 11:25:10
  TRACK 361 AUDIO
    TITLE "4:cjc087_3141"
    INDEX 01 11:26:13
  TRACK 362 AUDIO
    TITLE "3:cjc087_3142"
    INDEX 01 11:28:57
  TRACK 363 AUDIO
    TITLE "0:"
    INDEX 01 11:31:09
  TRACK 364 AUDIO
    TITLE "4:cjc087_3143"
    INDEX 01 11:32:12
  TRACK 365 AUDIO
    TITLE "3:cjc087_3144"
    INDEX 01 11:34:03
  TRACK 366 AUDIO
    TITLE "0:"
    INDEX 01 11:36:12
  TRACK 367 AUDIO
    TITLE "4:cjc087_3145"
    INDEX 01 11:37:11
  TRACK 368 AUDIO
    TITLE "3:cjc087_3146"
    INDEX 01 11:38:69
  TRACK 369 AUDIO
    TITLE "0:"
    INDEX 01 11:41:07
  TRACK 370 AUDIO
    TITLE "2:cjc087_3147"
    INDEX 01 11:42:44
  TRACK 371 AUDIO
    TITLE "0:"
    INDEX 01 11:54:57
  TRACK 372 AUDIO
    TITLE "5:cjc087_3148"
    INDEX 01 11:56:24
  TRACK 373 AUDIO
    TITLE "0:"
    INDEX 01 11:58:19
  TRACK 374 AUDIO
    TITLE "4:cjc087_3149"
    INDEX 01 11:59:23
  TRACK 375 AUDIO
    TITLE "3:cjc087_3150"
    INDEX 01 12:01:70
  TRACK 376 AUDIO
    TITLE "0:"
    INDEX 01 12:04:65
  TRACK 377 AUDIO
    TITLE "4:cjc087_3151"
    INDEX 01 12:05:68
  TRACK 378 AUDIO
    TITLE "3:cjc087_3152"
    INDEX 01 12:07:59
  TRACK 379 AUDIO
    TITLE "0:"
    INDEX 01 12:09:43
  TRACK 380 AUDIO
    TITLE "4:cjc087_3153"
    INDEX 01 12:10:44
  TRACK 381 AUDIO
    TITLE "3:cjc087_3154"
    INDEX 01 12:13:07
  TRACK 382 AUDIO
    TITLE "0:"
    INDEX 01 12:15:43
  TRACK 383 AUDIO
    TITLE "4:cjc087_3155"
    INDEX 01 12:16:45
  TRACK 384 AUDIO
    TITLE "3:cjc087_3156"
    INDEX 01 12:18:55
  TRACK 385 AUDIO
    TITLE "0:"
    INDEX 01 12:21:67
  TRACK 386 AUDIO
    TITLE "4:cjc087_3157"
    INDEX 01 12:22:71
  TRACK 387 AUDIO
    TITLE "3:cjc087_3158"
    INDEX 01 12:25:40
  TRACK 388 AUDIO
    TITLE "0:"
    INDEX 01 12:27:72
  TRACK 389 AUDIO
    TITLE "4:cjc087_3159"
    INDEX 01 12:28:73
  TRACK 390 AUDIO
    TITLE "3:cjc087_3160"
    INDEX 01 12:31:54
  TRACK 391 AUDIO
    TITLE "0:"
    INDEX 01 12:34:13
  TRACK 392 AUDIO
    TITLE "5:cjc087_3161"
    INDEX 01 12:35:52
  TRACK 393 AUDIO
    TITLE "0:"
    INDEX 01 12:37:57
  TRACK 394 AUDIO
    TITLE "4:cjc087_3162"
    INDEX 01 12:38:58
  TRACK 395 AUDIO
    TITLE "3:cjc087_3163"
    INDEX 01 12:40:63
  TRACK 396 AUDIO
    TITLE "0:"
    INDEX 01 12:43:28
  TRACK 397 AUDIO
    TITLE "4:cjc087_3164"
    INDEX 01 12:44:29
  TRACK 398 AUDIO
    TITLE "3:cjc087_3165"
    INDEX 01 12:48:21
  TRACK 399 AUDIO
    TITLE "0:"
    INDEX 01 12:51:25
  TRACK 400 AUDIO
    TITLE "4:cjc087_3166"
    INDEX 01 12:52:31
  TRACK 401 AUDIO
    TITLE "3:cjc087_3167"
    INDEX 01 12:55:07
  TRACK 402 AUDIO
    TITLE "0:"
    INDEX 01 12:57:59
  TRACK 403 AUDIO
    TITLE "4:cjc087_3168"
    INDEX 01 12:58:61
  TRACK 404 AUDIO
    TITLE "3:cjc087_3169"
    INDEX 01 13:01:12
  TRACK 405 AUDIO
    TITLE "0:"
    INDEX 01 13:04:16
  TRACK 406 AUDIO
    TITLE "4:cjc087_3170"
    INDEX 01 13:05:18
  TRACK 407 AUDIO
    TITLE "3:cjc087_3171"
    INDEX 01 13:07:15
  TRACK 408 AUDIO
    TITLE "0:"
    INDEX 01 13:08:69
  TRACK 409 AUDIO
    TITLE "4:cjc087_3172"
    INDEX 01 13:09:72
  TRACK 410 AUDIO
    TITLE "3:cjc087_3173"
    INDEX 01 13:11:46
  TRACK 411 AUDIO
    TITLE "0:"
    INDEX 01 13:14:03
  TRACK 412 AUDIO
    TITLE "4:cjc087_3174"
    INDEX 01 13:15:04
  TRACK 413 AUDIO
    TITLE "3:cjc087_3175"
    INDEX 01 13:17:07
  TRACK 414 AUDIO
    TITLE "0:"
    INDEX 01 13:19:27
  TRACK 415 AUDIO
    TITLE "5:cjc087_3176"
    INDEX 01 13:20:68
  TRACK 416 AUDIO
    TITLE "0:"
    INDEX 01 13:22:71
  TRACK 417 AUDIO
    TITLE "4:cjc087_3177"
    INDEX 01 13:23:72
  TRACK 418 AUDIO
    TITLE "3:cjc087_3178"
    INDEX 01 13:26:24
  TRACK 419 AUDIO
    TITLE "0:"
    INDEX 01 13:29:26
  TRACK 420 AUDIO
    TITLE "4:cjc087_3179"
    INDEX 01 13:30:27
  TRACK 421 AUDIO
    TITLE "3:cjc087_3180"
    INDEX 01 13:31:46
  TRACK 422 AUDIO
    TITLE "0:"
    INDEX 01 13:33:55
  TRACK 423 AUDIO
    TITLE "4:cjc087_3181"
    INDEX 01 13:34:58
  TRACK 424 AUDIO
    TITLE "3:cjc087_3182"
    INDEX 01 13:36:44
  TRACK 425 AUDIO
    TITLE "0:"
    INDEX 01 13:38:44
  TRACK 426 AUDIO
    TITLE "4:cjc087_3183"
    INDEX 01 13:39:44
  TRACK 427 AUDIO
    TITLE "3:cjc087_3184"
    INDEX 01 13:40:69
  TRACK 428 AUDIO
    TITLE "0:"
    INDEX 01 13:42:46
  TRACK 429 AUDIO
    TITLE "4:cjc087_3185"
    INDEX 01 13:43:48
  TRACK 430 AUDIO
    TITLE "3:cjc087_3186"
    INDEX 01 13:45:33
  TRACK 431 AUDIO
    TITLE "0:"
    INDEX 01 13:47:55
  TRACK 432 AUDIO
    TITLE "4:cjc087_3187"
    INDEX 01 13:48:60
  TRACK 433 AUDIO
    TITLE "3:cjc087_3188"
    INDEX 01 13:51:27
  TRACK 434 AUDIO
    TITLE "0:"
    INDEX 01 13:53:40
  TRACK 435 AUDIO
    TITLE "4:cjc087_3189"
    INDEX 01 13:54:45
  TRACK 436 AUDIO
    TITLE "3:cjc087_3190"
    INDEX 01 13:56:42
  TRACK 437 AUDIO
    TITLE "0:"
    INDEX 01 13:58:71
  TRACK 438 AUDIO
    TITLE "4:cjc087_3191"
    INDEX 01 14:00:19
  TRACK 439 AUDIO
    TITLE "3:cjc087_3192"
    INDEX 01 14:02:06
  TRACK 440 AUDIO
    TITLE "0:"
    INDEX 01 14:04:28
  TRACK 441 AUDIO
    TITLE "5:cjc087_3193"
    INDEX 01 14:05:71
  TRACK 442 AUDIO
    TITLE "0:"
    INDEX 01 14:08:08
  TRACK 443 AUDIO
    TITLE "3:cjc087_3194"
    INDEX 01 14:09:06
  TRACK 444 AUDIO
    TITLE "4:cjc087_3195"
    INDEX 01 14:11:01
  TRACK 445 AUDIO
    TITLE "0:"
    INDEX 01 14:12:18
  TRACK 446 AUDIO
    TITLE "3:cjc087_3196"
    INDEX 01 14:13:17
  TRACK 447 AUDIO
    TITLE "4:cjc087_3197"
    INDEX 01 14:14:50
  TRACK 448 AUDIO
    TITLE "0:"
    INDEX 01 14:16:00
  TRACK 449 AUDIO
    TITLE "3:cjc087_3198"
    INDEX 01 14:17:03
  TRACK 450 AUDIO
    TITLE "4:cjc087_3199"
    INDEX 01 14:20:37
  TRACK 451 AUDIO
    TITLE "0:"
    INDEX 01 14:23:06
  TRACK 452 AUDIO
    TITLE "3:cjc087_3200"
    INDEX 01 14:24:05
  TRACK 453 AUDIO
    TITLE "4:cjc087_3201"
    INDEX 01 14:26:57
  TRACK 454 AUDIO
    TITLE "0:"
    INDEX 01 14:29:22
  TRACK 455 AUDIO
    TITLE "3:cjc087_3202"
    INDEX 01 14:30:28
  TRACK 456 AUDIO
    TITLE "4:cjc087_3203"
    INDEX 01 14:32:62
  TRACK 457 AUDIO
    TITLE "0:"
    INDEX 01 14:35:01
  TRACK 458 AUDIO
    TITLE "3:cjc087_3204"
    INDEX 01 14:36:05
  TRACK 459 AUDIO
    TITLE "4:cjc087_3205"
    INDEX 01 14:38:74
  TRACK 460 AUDIO
    TITLE "0:"
    INDEX 01 14:41:51
  TRACK 461 AUDIO
    TITLE "5:cjc087_3206"
    INDEX 01 14:43:15
  TRACK 462 AUDIO
    TITLE "0:"
    INDEX 01 14:45:19
  TRACK 463 AUDIO
    TITLE "4:cjc087_3207"
    INDEX 01 14:46:21
  TRACK 464 AUDIO
    TITLE "3:cjc087_3208"
    INDEX 01 14:47:67
  TRACK 465 AUDIO
    TITLE "0:"
    INDEX 01 14:49:29
  TRACK 466 AUDIO
    TITLE "4:cjc087_3209"
    INDEX 01 14:50:32
  TRACK 467 AUDIO
    TITLE "3:cjc087_3210"
    INDEX 01 14:52:19
  TRACK 468 AUDIO
    TITLE "0:"
    INDEX 01 14:54:40
  TRACK 469 AUDIO
    TITLE "4:cjc087_3211"
    INDEX 01 14:55:47
  TRACK 470 AUDIO
    TITLE "3:cjc087_3212"
    INDEX 01 14:57:60
  TRACK 471 AUDIO
    TITLE "0:"
    INDEX 01 15:00:01
  TRACK 472 AUDIO
    TITLE "4:cjc087_3213"
    INDEX 01 15:01:05
  TRACK 473 AUDIO
    TITLE "3:cjc087_3214"
    INDEX 01 15:03:29
  TRACK 474 AUDIO
    TITLE "0:"
    INDEX 01 15:05:36
  TRACK 475 AUDIO
    TITLE "4:cjc087_3215"
    INDEX 01 15:06:37
  TRACK 476 AUDIO
    TITLE "3:cjc087_3216"
    INDEX 01 15:08:40
  TRACK 477 AUDIO
    TITLE "0:"
    INDEX 01 15:10:41
  TRACK 478 AUDIO
    TITLE "4:cjc087_3217"
    INDEX 01 15:11:42
  TRACK 479 AUDIO
    TITLE "3:cjc087_3218"
    INDEX 01 15:12:71
  TRACK 480 AUDIO
    TITLE "0:"
    INDEX 01 15:15:09
  TRACK 481 AUDIO
    TITLE "5:cjc087_3219"
    INDEX 01 15:16:47
  TRACK 482 AUDIO
    TITLE "0:"
    INDEX 01 15:18:50
  TRACK 483 AUDIO
    TITLE "4:cjc087_3220"
    INDEX 01 15:19:50
  TRACK 484 AUDIO
    TITLE "3:cjc087_3221"
    INDEX 01 15:21:07
  TRACK 485 AUDIO
    TITLE "0:"
    INDEX 01 15:23:16
  TRACK 486 AUDIO
    TITLE "4:cjc087_3222"
    INDEX 01 15:24:19
  TRACK 487 AUDIO
    TITLE "3:cjc087_3223"
    INDEX 01 15:26:16
  TRACK 488 AUDIO
    TITLE "0:"
    INDEX 01 15:28:52
  TRACK 489 AUDIO
    TITLE "4:cjc087_3224"
    INDEX 01 15:29:54
  TRACK 490 AUDIO
    TITLE "3:cjc087_3225"
    INDEX 01 15:31:29
  TRACK 491 AUDIO
    TITLE "0:"
    INDEX 01 15:33:09
  TRACK 492 AUDIO
    TITLE "4:cjc087_3226"
    INDEX 01 15:34:22
  TRACK 493 AUDIO
    TITLE "3:cjc087_3227"
    INDEX 01 15:36:54
  TRACK 494 AUDIO
    TITLE "0:"
    INDEX 01 15:38:55
  TRACK 495 AUDIO
    TITLE "4:cjc087_3228"
    INDEX 01 15:39:56
  TRACK 496 AUDIO
    TITLE "3:cjc087_3229"
    INDEX 01 15:41:67
  TRACK 497 AUDIO
    TITLE "0:"
    INDEX 01 15:43:52
  TRACK 498 AUDIO
    TITLE "4:cjc087_3230"
    INDEX 01 15:44:53
  TRACK 499 AUDIO
    TITLE "3:cjc087_3231"
    INDEX 01 15:46:07
  TRACK 500 AUDIO
    TITLE "0:"
    INDEX 01 15:48:08
  TRACK 501 AUDIO
    TITLE "4:cjc087_3232"
    INDEX 01 15:49:11
  TRACK 502 AUDIO
    TITLE "3:cjc087_3233"
    INDEX 01 15:50:74
  TRACK 503 AUDIO
    TITLE "0:"
    INDEX 01 15:52:57
  TRACK 504 AUDIO
    TITLE "2:cjc087_3234"
    INDEX 01 15:54:22
  TRACK 505 AUDIO
    TITLE "0:"
    INDEX 01 16:05:73
